<svg width="500" height="500" viewBox="0 0 500 500" fill="none" xmlns="http://www.w3.org/2000/svg">
<g clip-path="url(#clip0_2205_15)">
<path d="M249.858 0.0208238H251.748C297.309 0.0208238 339.945 12.7858 376.463 35.0048L375.345 34.3593C413.368 57.1405 444.155 88.6885 465.758 126.442L466.388 127.65C487.522 164.487 500 208.779 500 256.049C500 368.623 429.219 464.287 330.78 498.813L329.012 499.354C327.731 499.771 326.268 500 324.764 500C321.472 500 318.424 498.875 315.965 497.001L316.006 497.022C313.404 494.627 311.779 491.171 311.779 487.318C311.779 487.214 311.779 487.11 311.779 487.027V487.048C311.779 486.381 311.833 477.871 311.941 461.518C312.05 445.164 312.104 430.213 312.104 416.663C312.246 415.101 312.327 413.311 312.327 411.478C312.327 394.986 305.763 380.076 295.176 369.31C307.735 368.04 319.074 365.916 330.089 362.959L328.544 363.313C340.189 359.981 350.35 355.545 359.779 349.944L359.149 350.298C369.472 344.467 378.211 337.054 385.405 328.266L385.527 328.12C393.086 318.208 399 306.547 402.597 293.865L402.78 293.136C407.027 278.914 409.466 262.567 409.466 245.637C409.466 244.7 409.466 243.742 409.446 242.805V242.951C409.446 242.493 409.466 241.972 409.466 241.452C409.466 215.464 399.671 191.829 383.677 174.191L383.738 174.253C387.152 165.091 389.124 154.513 389.124 143.455C389.124 129.94 386.177 117.155 380.914 105.681L381.137 106.222C378.8 105.764 376.138 105.493 373.395 105.493C366.607 105.493 360.206 107.118 354.516 109.991L354.759 109.887C343.217 114.26 333.34 119.216 324.033 125.005L324.805 124.547L312.429 132.543C293.692 127.046 272.171 123.881 249.939 123.881C227.707 123.881 206.186 127.046 185.783 132.96L187.429 132.543C183.961 130.1 179.348 127.095 173.59 123.527C166.01 119.07 157.048 114.76 147.74 111.137L146.399 110.678C140.445 107.472 133.393 105.597 125.894 105.597C123.374 105.597 120.895 105.806 118.497 106.222L118.761 106.181C113.721 117.092 110.775 129.899 110.775 143.413C110.775 154.471 112.746 165.07 116.363 174.837L116.16 174.233C100.207 191.808 90.4324 215.443 90.4324 241.431C90.4324 241.952 90.4324 242.493 90.4528 243.014V242.93C90.4324 243.742 90.4324 244.68 90.4324 245.637C90.4324 262.484 92.8711 278.768 97.4232 294.094L97.1184 292.907C100.959 306.297 106.792 317.938 114.392 328.162L114.209 327.891C121.403 336.95 130.101 344.405 139.957 350.006L140.404 350.235C149.183 355.483 159.364 359.918 170.074 363.021L171.009 363.25C180.479 365.853 191.818 367.977 203.422 369.164L204.357 369.247C195.598 378.16 189.766 390.071 188.425 403.357L188.404 403.607C184.198 405.71 179.3 407.417 174.199 408.521L173.773 408.604C168.57 409.666 162.616 410.27 156.499 410.27C156.052 410.27 155.605 410.27 155.158 410.27H155.219C147.212 410.104 139.855 407.438 133.779 403.024L133.901 403.107C126.362 397.714 120.265 390.717 115.997 382.575L115.855 382.262C111.831 375.266 106.527 369.476 100.248 365.041L100.065 364.916C95.4926 361.397 90.1073 358.648 84.2952 357.003L83.9701 356.92L77.4671 355.92C76.9997 355.879 76.451 355.858 75.9023 355.858C73.0572 355.858 70.3544 356.441 67.8955 357.461L68.0377 357.399C66.3036 358.398 65.7617 359.675 66.412 361.23C67.2045 363.021 68.18 364.562 69.3586 365.916L69.3383 365.895C70.578 367.394 71.9802 368.706 73.5043 369.851L73.5653 369.893L75.8413 371.559C81.5924 374.641 86.3274 378.93 89.9244 384.116L90.0057 384.241C93.8872 389.176 97.3013 394.757 100.045 400.733L100.248 401.233L103.499 408.896C106.243 417.267 111.222 424.264 117.725 429.324L117.826 429.407C123.923 434.28 131.279 437.779 139.307 439.361L139.632 439.403C146.338 440.736 154.142 441.568 162.108 441.735H162.25C163.165 441.777 164.221 441.777 165.298 441.777C170.602 441.777 175.805 441.339 180.885 440.486L180.337 440.569L187.815 439.236C187.815 447.691 187.869 457.533 187.978 468.764C188.086 479.995 188.14 486.055 188.14 486.943V487.235C188.14 491.087 186.514 494.544 183.913 496.939C181.495 498.792 178.447 499.917 175.134 499.917C173.61 499.917 172.147 499.688 170.785 499.25L170.887 499.271C70.7202 464.1 0 368.435 0 255.841C0 208.613 12.437 164.362 34.1611 126.338L33.5108 127.546C55.743 88.5844 86.5307 57.0364 123.374 34.9007L124.553 34.2551C159.893 12.7233 202.487 0 247.968 0H249.959H249.858V0.0208238ZM94.5984 367.894C95.2487 366.339 94.4901 365.006 92.3224 363.896C90.1547 363.229 88.7457 363.451 88.0954 364.562C87.4451 366.117 88.2038 367.45 90.3715 368.56C92.3224 369.893 93.7314 369.671 94.5984 367.894ZM104.698 379.243C106.216 378.132 105.999 376.355 104.048 373.912C101.88 371.913 100.146 371.58 98.8457 372.912C97.3283 374.023 97.5451 375.8 99.496 378.243C101.65 380.423 103.384 380.749 104.698 379.222V379.243ZM114.453 394.236C116.404 392.681 116.404 390.571 114.453 387.906C112.719 385.018 110.876 384.352 108.925 385.906C106.974 387.017 106.974 389.016 108.925 391.904C110.876 394.791 112.719 395.569 114.453 394.236ZM128.109 408.25C129.843 406.473 129.41 404.363 126.809 401.92C124.207 399.254 122.04 398.921 120.306 400.92C118.355 402.697 118.788 404.808 121.606 407.251C124.207 409.916 126.375 410.222 128.109 408.167V408.25ZM146.663 416.58C147.313 414.137 145.904 412.36 142.436 411.249C139.185 410.361 137.125 411.138 136.258 413.581C135.391 416.025 136.8 417.691 140.485 418.579C143.737 419.926 145.796 419.259 146.663 416.58ZM167.168 418.246C167.168 415.358 165.325 414.137 161.64 414.581C158.172 414.581 156.438 415.802 156.438 418.246C156.438 421.133 158.28 422.355 161.966 421.911C165.434 421.925 167.168 420.689 167.168 418.246ZM186.047 414.914C185.613 412.471 183.663 411.471 180.194 411.915C176.726 412.582 175.209 414.248 175.642 416.913C176.076 419.579 178.027 420.467 181.495 419.579C184.963 418.69 186.467 417.135 186.047 414.914Z" fill="#666666"/>
<path d="M250.929 228.01H251.874C274.655 228.01 295.972 234.393 314.232 245.502L313.673 245.18C332.684 256.57 348.078 272.344 358.879 291.221L359.194 291.825C369.761 310.244 376 332.39 376 356.025C376 412.311 340.609 460.144 291.39 477.407L290.506 477.677C289.866 477.885 289.134 478 288.382 478C286.736 478 285.212 477.438 283.982 476.501L284.003 476.511C282.702 475.314 281.889 473.585 281.889 471.659C281.889 471.607 281.889 471.555 281.889 471.513V471.524C281.889 471.191 281.916 466.936 281.971 458.759C282.025 450.582 282.052 443.106 282.052 436.332C282.123 435.551 282.164 434.655 282.164 433.739C282.164 425.493 278.882 418.038 273.588 412.655C279.867 412.02 285.537 410.958 291.044 409.479L290.272 409.656C296.094 407.99 301.175 405.773 305.889 402.972L305.574 403.149C310.736 400.234 315.105 396.527 318.702 392.133L318.763 392.06C322.543 387.104 325.5 381.274 327.299 374.933L327.39 374.568C329.514 367.457 330.733 359.284 330.733 350.819C330.733 350.35 330.733 349.871 330.723 349.403V349.476C330.723 349.247 330.733 348.986 330.733 348.726C330.733 335.732 325.835 323.914 317.839 315.096L317.869 315.127C319.576 310.546 320.562 305.256 320.562 299.728C320.562 292.97 319.089 286.577 316.457 280.84L316.569 281.111C315.4 280.882 314.069 280.747 312.697 280.747C309.304 280.747 306.103 281.559 303.258 282.996L303.38 282.944C297.608 285.13 292.67 287.608 288.016 290.503L288.402 290.274L282.214 294.272C272.846 291.523 262.086 289.94 250.97 289.94C239.853 289.94 229.093 291.523 218.891 294.48L219.714 294.272C217.98 293.05 215.674 291.547 212.795 289.763C209.005 287.535 204.524 285.38 199.87 283.568L199.199 283.339C196.222 281.736 192.696 280.799 188.947 280.799C187.687 280.799 186.447 280.903 185.248 281.111L185.381 281.09C182.861 286.546 181.387 292.949 181.387 299.707C181.387 305.235 182.373 310.535 184.182 315.418L184.08 315.116C176.104 323.904 171.216 335.721 171.216 348.716C171.216 348.976 171.216 349.247 171.226 349.507V349.465C171.216 349.871 171.216 350.34 171.216 350.819C171.216 359.242 172.436 367.384 174.712 375.047L174.559 374.454C176.48 381.149 179.396 386.969 183.196 392.081L183.105 391.946C186.702 396.475 191.05 400.202 195.978 403.003L196.202 403.118C200.592 405.741 205.682 407.959 211.037 409.511L211.504 409.625C216.239 410.927 221.909 411.989 227.711 412.582L228.179 412.624C223.799 417.08 220.883 423.036 220.212 429.678L220.202 429.803C218.099 430.855 215.65 431.709 213.1 432.261L212.886 432.302C210.285 432.833 207.308 433.135 204.249 433.135C204.026 433.135 203.802 433.135 203.579 433.135H203.609C199.606 433.052 195.928 431.719 192.89 429.512L192.95 429.553C189.181 426.857 186.133 423.358 183.999 419.287L183.928 419.131C181.916 415.633 179.264 412.738 176.124 410.521L176.033 410.458C173.746 408.698 171.054 407.324 168.148 406.502L167.985 406.46L164.734 405.96C164.5 405.939 164.225 405.929 163.951 405.929C162.529 405.929 161.177 406.22 159.948 406.731L160.019 406.699C159.152 407.199 158.881 407.838 159.206 408.615C159.602 409.511 160.09 410.281 160.679 410.958L160.669 410.947C161.289 411.697 161.99 412.353 162.752 412.926L162.783 412.946L163.921 413.779C166.796 415.32 169.164 417.465 170.962 420.058L171.003 420.12C172.944 422.588 174.651 425.378 176.022 428.366L176.124 428.616L177.75 432.448C179.121 436.634 181.611 440.132 184.862 442.662L184.913 442.704C187.961 445.14 191.64 446.889 195.653 447.681L195.816 447.701C199.169 448.368 203.071 448.784 207.054 448.868H207.125C207.582 448.888 208.111 448.888 208.649 448.888C211.301 448.888 213.902 448.67 216.443 448.243L216.168 448.284L219.908 447.618C219.908 451.845 219.935 456.767 219.989 462.382C220.043 467.998 220.07 471.027 220.07 471.472V471.618C220.07 473.544 219.257 475.272 217.957 476.469C216.747 477.396 215.223 477.958 213.567 477.958C212.805 477.958 212.073 477.844 211.393 477.625L211.443 477.636C161.36 460.05 126 412.218 126 355.921C126 332.306 132.219 310.181 143.081 291.169L142.755 291.773C153.871 272.292 169.265 256.518 187.687 245.45L188.276 245.128C205.946 234.362 227.244 228 249.984 228H250.98H250.929V228.01ZM173.299 411.947C173.624 411.17 173.245 410.503 172.161 409.948C171.077 409.615 170.373 409.726 170.048 410.281C169.723 411.058 170.102 411.725 171.186 412.28C172.161 412.946 172.866 412.835 173.299 411.947ZM178.349 417.621C179.108 417.066 179 416.178 178.024 414.956C176.94 413.956 176.073 413.79 175.423 414.456C174.664 415.012 174.773 415.9 175.748 417.122C176.825 418.211 177.692 418.375 178.349 417.611V417.621ZM183.226 425.118C184.202 424.341 184.202 423.286 183.226 421.953C182.359 420.509 181.438 420.176 180.463 420.953C179.487 421.509 179.487 422.508 180.463 423.952C181.438 425.396 182.359 425.784 183.226 425.118ZM190.055 432.125C190.922 431.237 190.705 430.182 189.404 428.96C188.104 427.627 187.02 427.461 186.153 428.46C185.177 429.349 185.394 430.404 186.803 431.625C188.104 432.958 189.188 433.111 190.055 432.084V432.125ZM199.332 436.29C199.657 435.068 198.952 434.18 197.218 433.624C195.592 433.18 194.563 433.569 194.129 434.791C193.696 436.012 194.4 436.845 196.243 437.289C197.868 437.963 198.898 437.63 199.332 436.29ZM209.584 437.123C209.584 435.679 208.663 435.068 206.82 435.29C205.086 435.29 204.219 435.901 204.219 437.123C204.219 438.567 205.14 439.178 206.983 438.955C208.717 438.962 209.584 438.345 209.584 437.123ZM219.024 435.457C218.807 434.235 217.831 433.736 216.097 433.958C214.363 434.291 213.604 435.124 213.821 436.457C214.038 437.789 215.013 438.234 216.747 437.789C218.482 437.345 219.233 436.568 219.024 435.457Z" fill="#E44400"/>
</g>
<defs>
<clipPath id="clip0_2205_15">
<rect width="500" height="500" fill="white"/>
</clipPath>
</defs>
</svg>
