<svg width="500" height="500" viewBox="0 0 500 500" fill="none" xmlns="http://www.w3.org/2000/svg">
<g clip-path="url(#clip0_2205_14)">
<path d="M427.885 0H72.1154C32.2872 0 0 30.526 0 68.1818C0 105.838 32.2872 136.364 72.1154 136.364H427.885C467.713 136.364 500 105.838 500 68.1818C500 30.526 467.713 0 427.885 0Z" fill="#111827"/>
<path d="M427.885 181.818H72.1154C32.2872 181.818 0 212.344 0 249.999C0 287.655 32.2872 318.181 72.1154 318.181H427.885C467.713 318.181 500 287.655 500 249.999C500 212.344 467.713 181.818 427.885 181.818Z" fill="#E44400"/>
<path d="M427.885 363.636H72.1154C32.2872 363.636 0 394.162 0 431.818C0 469.474 32.2872 500 72.1154 500H427.885C467.713 500 500 469.474 500 431.818C500 394.162 467.713 363.636 427.885 363.636Z" fill="#666666"/>
</g>
<defs>
<clipPath id="clip0_2205_14">
<rect width="500" height="500" fill="white"/>
</clipPath>
</defs>
</svg>
